<?xml version="1.0" encoding="UTF-8"?>
<svg width="191px" height="16px" viewBox="0 0 191 16" version="1.1" xmlns="http://www.w3.org/2000/svg" xmlns:xlink="http://www.w3.org/1999/xlink">
    <!-- Generator: Sketch 50.2 (55047) - http://www.bohemiancoding.com/sketch -->
    <title>Creative Fabrica</title>
    <desc>Created with Sketch.</desc>
    <defs>
        <linearGradient x1="100%" y1="100%" x2="0%" y2="1.72254642e-14%" id="linearGradient-1">
            <stop stop-color="#46D990" offset="0%"></stop>
            <stop stop-color="#3BB2B8" offset="100%"></stop>
        </linearGradient>
    </defs>
    <g id="Page-1" stroke="none" stroke-width="1" fill="none" fill-rule="evenodd">
        <g id="Webfont-Demo-File" transform="translate(-70.000000, -250.000000)" fill="url(#linearGradient-1)">
            <g id="Header">
                <g id="Navigation" transform="translate(30.000000, 216.000000)">
                    <path d="M51.1523438,44.546875 C51.1067706,45.2630244 50.9521498,45.9075492 50.6884766,46.4804688 C50.4248034,47.0533883 50.0716168,47.5416646 49.6289062,47.9453125 C49.1861957,48.3489604 48.6588572,48.6598296 48.046875,48.8779297 C47.4348928,49.0960297 46.7578162,49.2050781 46.015625,49.2050781 C45.1757771,49.2050781 44.4303418,49.0504573 43.7792969,48.7412109 C43.128252,48.4319646 42.5813824,47.9990262 42.1386719,47.4423828 C41.6959613,46.8857394 41.357423,46.2168008 41.1230469,45.4355469 C40.8886707,44.654293 40.7714844,43.7949266 40.7714844,42.8574219 L40.7714844,40.9433594 C40.7714844,39.9993442 40.8951811,39.1367227 41.1425781,38.3554688 C41.3899752,37.5742148 41.7415342,36.9036486 42.1972656,36.34375 C42.6529971,35.7838514 43.2047494,35.3492854 43.8525391,35.0400391 C44.5003288,34.7307927 45.2278605,34.5761719 46.0351562,34.5761719 C46.8164102,34.5761719 47.5113902,34.6868479 48.1201172,34.9082031 C48.7288442,35.1295584 49.2480447,35.4453104 49.6777344,35.8554688 C50.107424,36.2656271 50.4459623,36.7669241 50.6933594,37.359375 C50.9407564,37.9518259 51.0970049,38.6191369 51.1621094,39.3613281 L48.4277344,39.3613281 C48.4016926,38.9381489 48.3382167,38.5670589 48.2373047,38.2480469 C48.1363927,37.9290349 47.9899098,37.663738 47.7978516,37.4521484 C47.6057933,37.2405588 47.3649103,37.0810552 47.0751953,36.9736328 C46.7854803,36.8662104 46.4388041,36.8125 46.0351562,36.8125 C45.6119771,36.8125 45.2441422,36.9036449 44.9316406,37.0859375 C44.6191391,37.2682301 44.3603526,37.5351545 44.1552734,37.8867188 C43.9501943,38.238283 43.7988286,38.6695938 43.7011719,39.1806641 C43.6035151,39.6917343 43.5546875,40.2727832 43.5546875,40.9238281 L43.5546875,42.8574219 C43.5546875,44.2571685 43.7516256,45.2923144 44.1455078,45.9628906 C44.53939,46.6334669 45.1627562,46.96875 46.015625,46.96875 C46.7317744,46.96875 47.298175,46.7783222 47.7148438,46.3974609 C48.1315125,46.0165997 48.36263,45.3997438 48.4082031,44.546875 L51.1523438,44.546875 Z M60.9667969,38.2382812 C61.3769552,38.2382812 61.7561832,38.2659502 62.1044922,38.3212891 C62.4528012,38.3766279 62.7343739,38.4368486 62.9492188,38.5019531 L62.5488281,41.2070312 C62.1907534,41.1223954 61.8245461,41.0589195 61.4501953,41.0166016 C61.0758445,40.9742836 60.7194027,40.953125 60.3808594,40.953125 C59.6191368,40.953125 59.0087914,41.0996079 58.5498047,41.3925781 C58.090818,41.6855483 57.747397,42.105466 57.5195312,42.6523438 L57.5195312,49 L54.8046875,49 L54.8046875,38.4335938 L57.3339844,38.4335938 L57.4609375,40.1621094 C57.8906271,39.563148 58.4049449,39.0927751 59.0039062,38.7509766 C59.6028676,38.409178 60.2571579,38.2382812 60.9667969,38.2382812 Z M70.5078125,49.1953125 C69.6940063,49.1953125 68.9550814,49.0618503 68.2910156,48.7949219 C67.6269498,48.5279935 67.057294,48.1650414 66.5820312,47.7060547 C66.1067685,47.247068 65.7405612,46.7067088 65.4833984,46.0849609 C65.2262357,45.463213 65.0976562,44.7975296 65.0976562,44.0878906 L65.0976562,43.6972656 C65.0976562,42.8899699 65.2246081,42.1526726 65.4785156,41.4853516 C65.7324231,40.8180305 66.0872373,40.243492 66.5429688,39.7617188 C66.9987002,39.2799455 67.5390594,38.9056003 68.1640625,38.6386719 C68.7890656,38.3717435 69.4693974,38.2382812 70.2050781,38.2382812 C70.9668007,38.2382812 71.6455048,38.3636055 72.2412109,38.6142578 C72.836917,38.8649101 73.3414693,39.2180967 73.7548828,39.6738281 C74.1682963,40.1295596 74.4824208,40.6780567 74.6972656,41.3193359 C74.9121104,41.9606152 75.0195312,42.6686159 75.0195312,43.4433594 L75.0195312,44.5957031 L67.8515625,44.5957031 C67.9036461,44.9537778 68.0094393,45.280923 68.1689453,45.5771484 C68.3284513,45.8733739 68.5318998,46.1289052 68.7792969,46.34375 C69.0266939,46.5585948 69.3098942,46.7246088 69.6289062,46.8417969 C69.9479183,46.958985 70.2962221,47.0175781 70.6738281,47.0175781 C70.9407565,47.0175781 71.2060534,46.9915367 71.4697266,46.9394531 C71.7333998,46.8873695 71.9856759,46.8108729 72.2265625,46.7099609 C72.4674491,46.609049 72.6920563,46.4837247 72.9003906,46.3339844 C73.108725,46.184244 73.2910148,46.0084646 73.4472656,45.8066406 L74.8046875,47.2714844 C74.6354158,47.512371 74.4156915,47.7483712 74.1455078,47.9794922 C73.8753242,48.2106131 73.5563169,48.4156892 73.1884766,48.5947266 C72.8206362,48.7737639 72.4121116,48.9186192 71.9628906,49.0292969 C71.5136696,49.1399745 71.0286484,49.1953125 70.5078125,49.1953125 Z M70.1855469,40.4355469 C69.8795558,40.4355469 69.5996106,40.4892573 69.3457031,40.5966797 C69.0917956,40.7041021 68.8688161,40.8587229 68.6767578,41.0605469 C68.4846996,41.2623708 68.3235684,41.5032538 68.1933594,41.7832031 C68.0631504,42.0631524 67.9654951,42.3756493 67.9003906,42.7207031 L72.3535156,42.7207031 L72.3535156,42.5058594 C72.3404947,42.2193996 72.2851567,41.94922 72.1875,41.6953125 C72.0898433,41.441405 71.9498707,41.2216806 71.7675781,41.0361328 C71.5852855,40.850585 71.362306,40.7041021 71.0986328,40.5966797 C70.8349596,40.4892573 70.5306007,40.4355469 70.1855469,40.4355469 Z M83.984375,49 C83.9192705,48.869791 83.8639325,48.7200529 83.8183594,48.5507812 C83.7727862,48.3815096 83.7337241,48.2024749 83.7011719,48.0136719 C83.5514315,48.1764331 83.3789072,48.3294264 83.1835938,48.4726562 C82.9882803,48.6158861 82.7718111,48.7412104 82.5341797,48.8486328 C82.2965483,48.9560552 82.0345066,49.0406898 81.7480469,49.1025391 C81.4615871,49.1643883 81.1523454,49.1953125 80.8203125,49.1953125 C80.2799452,49.1953125 79.7835309,49.1171883 79.3310547,48.9609375 C78.8785785,48.8046867 78.489585,48.5865899 78.1640625,48.3066406 C77.83854,48.0266913 77.5846363,47.6930358 77.4023438,47.3056641 C77.2200512,46.9182923 77.1289062,46.4967471 77.1289062,46.0410156 C77.1289062,44.9277288 77.5439412,44.0667348 78.3740234,43.4580078 C79.2041057,42.8492808 80.4427001,42.5449219 82.0898438,42.5449219 L83.6035156,42.5449219 L83.6035156,41.9199219 C83.6035156,41.4121068 83.4375017,41.0100926 83.1054688,40.7138672 C82.7734358,40.4176417 82.294925,40.2695312 81.6699219,40.2695312 C81.1165337,40.2695312 80.7128919,40.3883452 80.4589844,40.6259766 C80.2050769,40.863608 80.078125,41.1809876 80.078125,41.578125 L77.3632812,41.578125 C77.3632812,41.128904 77.4625641,40.702476 77.6611328,40.2988281 C77.8597015,39.8951803 78.1494122,39.5403661 78.5302734,39.234375 C78.9111347,38.9283839 79.3766249,38.6858733 79.9267578,38.5068359 C80.4768908,38.3277986 81.1067673,38.2382812 81.8164062,38.2382812 C82.4544303,38.2382812 83.0484999,38.3164055 83.5986328,38.4726562 C84.1487658,38.628907 84.625649,38.8600245 85.0292969,39.1660156 C85.4329447,39.4720067 85.7486968,39.8577451 85.9765625,40.3232422 C86.2044282,40.7887393 86.3183594,41.3274709 86.3183594,41.9394531 L86.3183594,46.4707031 C86.3183594,47.0371122 86.3541663,47.5058575 86.4257812,47.8769531 C86.4973962,48.2480487 86.6015618,48.567056 86.7382812,48.8339844 L86.7382812,49 L83.984375,49 Z M81.3964844,47.0957031 C81.6699232,47.0957031 81.923827,47.0631514 82.1582031,46.9980469 C82.3925793,46.9329424 82.6041657,46.8483078 82.7929688,46.7441406 C82.9817718,46.6399734 83.1445306,46.5211595 83.28125,46.3876953 C83.4179694,46.2542311 83.5253902,46.1191413 83.6035156,45.9824219 L83.6035156,44.1660156 L82.2167969,44.1660156 C81.7936177,44.1660156 81.4322932,44.2067053 81.1328125,44.2880859 C80.8333318,44.3694666 80.5891937,44.4833977 80.4003906,44.6298828 C80.2115876,44.7763679 80.071615,44.9521474 79.9804688,45.1572266 C79.8893225,45.3623057 79.84375,45.5852853 79.84375,45.8261719 C79.84375,46.190757 79.9723294,46.4934884 80.2294922,46.734375 C80.4866549,46.9752616 80.8756484,47.0957031 81.3964844,47.0957031 Z M94.3652344,35.8457031 L94.3652344,38.4335938 L98.3105469,38.4335938 L98.3105469,40.4355469 L94.3652344,40.4355469 L94.3652344,44.9765625 C94.3652344,45.360679 94.4091792,45.6813138 94.4970703,45.9384766 C94.5849614,46.1956393 94.7102856,46.4007154 94.8730469,46.5537109 C95.0358081,46.7067065 95.2327462,46.8157549 95.4638672,46.8808594 C95.6949881,46.9459639 95.9537746,46.9785156 96.2402344,46.9785156 C96.4485688,46.9785156 96.6617828,46.9687501 96.8798828,46.9492188 C97.0979829,46.9296874 97.3063141,46.9052736 97.5048828,46.8759766 C97.7034515,46.8466795 97.8889965,46.8157554 98.0615234,46.7832031 C98.2340503,46.7506509 98.3821608,46.7180991 98.5058594,46.6855469 L98.7695312,48.5507812 C98.5807282,48.6614589 98.3593763,48.7574866 98.1054688,48.8388672 C97.8515612,48.9202478 97.5813816,48.9869789 97.2949219,49.0390625 C97.0084621,49.0911461 96.7106135,49.1318358 96.4013672,49.1611328 C96.0921208,49.1904298 95.7877619,49.2050781 95.4882812,49.2050781 C94.9088513,49.2050781 94.3831404,49.1285815 93.9111328,48.9755859 C93.4391252,48.8225904 93.0354834,48.5849625 92.7001953,48.2626953 C92.3649072,47.9404281 92.1061207,47.5302759 91.9238281,47.0322266 C91.7415355,46.5341772 91.6503906,45.9368524 91.6503906,45.2402344 L91.6503906,40.4355469 L89.2382812,40.4355469 L89.2382812,38.4335938 L91.6503906,38.4335938 L91.6503906,35.8457031 L94.3652344,35.8457031 Z M102.109375,38.4335938 L107.861328,38.4335938 L107.861328,46.7929688 L110.722656,46.7929688 L110.722656,49 L102.109375,49 L102.109375,46.7929688 L105.117188,46.7929688 L105.117188,40.6503906 L102.109375,40.6503906 L102.109375,38.4335938 Z M104.921875,35.7285156 C104.921875,35.5201813 104.95931,35.3264983 105.03418,35.1474609 C105.10905,34.9684236 105.214843,34.8154303 105.351562,34.6884766 C105.488282,34.5615228 105.652668,34.4622399 105.844727,34.390625 C106.036785,34.3190101 106.249999,34.2832031 106.484375,34.2832031 C106.966148,34.2832031 107.348631,34.4182929 107.631836,34.6884766 C107.91504,34.9586602 108.056641,35.3053364 108.056641,35.7285156 C108.056641,36.1516948 107.91504,36.498371 107.631836,36.7685547 C107.348631,37.0387383 106.966148,37.1738281 106.484375,37.1738281 C106.249999,37.1738281 106.036785,37.1380212 105.844727,37.0664062 C105.652668,36.9947913 105.488282,36.8955084 105.351562,36.7685547 C105.214843,36.6416009 105.10905,36.4886077 105.03418,36.3095703 C104.95931,36.130533 104.921875,35.93685 104.921875,35.7285156 Z M117.880859,45.8652344 L118.017578,46.6269531 L118.154297,45.8945312 L120.478516,38.4335938 L123.310547,38.4335938 L119.296875,49 L116.748047,49 L112.714844,38.4335938 L115.546875,38.4335938 L117.880859,45.8652344 Z M130.517578,49.1953125 C129.703772,49.1953125 128.964847,49.0618503 128.300781,48.7949219 C127.636715,48.5279935 127.06706,48.1650414 126.591797,47.7060547 C126.116534,47.247068 125.750327,46.7067088 125.493164,46.0849609 C125.236001,45.463213 125.107422,44.7975296 125.107422,44.0878906 L125.107422,43.6972656 C125.107422,42.8899699 125.234374,42.1526726 125.488281,41.4853516 C125.742189,40.8180305 126.097003,40.243492 126.552734,39.7617188 C127.008466,39.2799455 127.548825,38.9056003 128.173828,38.6386719 C128.798831,38.3717435 129.479163,38.2382812 130.214844,38.2382812 C130.976566,38.2382812 131.65527,38.3636055 132.250977,38.6142578 C132.846683,38.8649101 133.351235,39.2180967 133.764648,39.6738281 C134.178062,40.1295596 134.492186,40.6780567 134.707031,41.3193359 C134.921876,41.9606152 135.029297,42.6686159 135.029297,43.4433594 L135.029297,44.5957031 L127.861328,44.5957031 C127.913412,44.9537778 128.019205,45.280923 128.178711,45.5771484 C128.338217,45.8733739 128.541665,46.1289052 128.789062,46.34375 C129.03646,46.5585948 129.31966,46.7246088 129.638672,46.8417969 C129.957684,46.958985 130.305988,47.0175781 130.683594,47.0175781 C130.950522,47.0175781 131.215819,46.9915367 131.479492,46.9394531 C131.743165,46.8873695 131.995442,46.8108729 132.236328,46.7099609 C132.477215,46.609049 132.701822,46.4837247 132.910156,46.3339844 C133.118491,46.184244 133.30078,46.0084646 133.457031,45.8066406 L134.814453,47.2714844 C134.645181,47.512371 134.425457,47.7483712 134.155273,47.9794922 C133.88509,48.2106131 133.566083,48.4156892 133.198242,48.5947266 C132.830402,48.7737639 132.421877,48.9186192 131.972656,49.0292969 C131.523435,49.1399745 131.038414,49.1953125 130.517578,49.1953125 Z M130.195312,40.4355469 C129.889321,40.4355469 129.609376,40.4892573 129.355469,40.5966797 C129.101561,40.7041021 128.878582,40.8587229 128.686523,41.0605469 C128.494465,41.2623708 128.333334,41.5032538 128.203125,41.7832031 C128.072916,42.0631524 127.975261,42.3756493 127.910156,42.7207031 L132.363281,42.7207031 L132.363281,42.5058594 C132.35026,42.2193996 132.294922,41.94922 132.197266,41.6953125 C132.099609,41.441405 131.959636,41.2216806 131.777344,41.0361328 C131.595051,40.850585 131.372072,40.7041021 131.108398,40.5966797 C130.844725,40.4892573 130.540366,40.4355469 130.195312,40.4355469 Z M158.320312,43.1113281 L152.226562,43.1113281 L152.226562,49 L149.472656,49 L149.472656,34.78125 L159.082031,34.78125 L159.082031,37.0175781 L152.226562,37.0175781 L152.226562,40.8847656 L158.320312,40.8847656 L158.320312,43.1113281 Z M167.998047,49 C167.932942,48.869791 167.877604,48.7200529 167.832031,48.5507812 C167.786458,48.3815096 167.747396,48.2024749 167.714844,48.0136719 C167.565103,48.1764331 167.392579,48.3294264 167.197266,48.4726562 C167.001952,48.6158861 166.785483,48.7412104 166.547852,48.8486328 C166.31022,48.9560552 166.048179,49.0406898 165.761719,49.1025391 C165.475259,49.1643883 165.166017,49.1953125 164.833984,49.1953125 C164.293617,49.1953125 163.797203,49.1171883 163.344727,48.9609375 C162.89225,48.8046867 162.503257,48.5865899 162.177734,48.3066406 C161.852212,48.0266913 161.598308,47.6930358 161.416016,47.3056641 C161.233723,46.9182923 161.142578,46.4967471 161.142578,46.0410156 C161.142578,44.9277288 161.557613,44.0667348 162.387695,43.4580078 C163.217778,42.8492808 164.456372,42.5449219 166.103516,42.5449219 L167.617188,42.5449219 L167.617188,41.9199219 C167.617188,41.4121068 167.451174,41.0100926 167.119141,40.7138672 C166.787108,40.4176417 166.308597,40.2695312 165.683594,40.2695312 C165.130206,40.2695312 164.726564,40.3883452 164.472656,40.6259766 C164.218749,40.863608 164.091797,41.1809876 164.091797,41.578125 L161.376953,41.578125 C161.376953,41.128904 161.476236,40.702476 161.674805,40.2988281 C161.873373,39.8951803 162.163084,39.5403661 162.543945,39.234375 C162.924807,38.9283839 163.390297,38.6858733 163.94043,38.5068359 C164.490563,38.3277986 165.120439,38.2382812 165.830078,38.2382812 C166.468102,38.2382812 167.062172,38.3164055 167.612305,38.4726562 C168.162438,38.628907 168.639321,38.8600245 169.042969,39.1660156 C169.446617,39.4720067 169.762369,39.8577451 169.990234,40.3232422 C170.2181,40.7887393 170.332031,41.3274709 170.332031,41.9394531 L170.332031,46.4707031 C170.332031,47.0371122 170.367838,47.5058575 170.439453,47.8769531 C170.511068,48.2480487 170.615234,48.567056 170.751953,48.8339844 L170.751953,49 L167.998047,49 Z M165.410156,47.0957031 C165.683595,47.0957031 165.937499,47.0631514 166.171875,46.9980469 C166.406251,46.9329424 166.617838,46.8483078 166.806641,46.7441406 C166.995444,46.6399734 167.158202,46.5211595 167.294922,46.3876953 C167.431641,46.2542311 167.539062,46.1191413 167.617188,45.9824219 L167.617188,44.1660156 L166.230469,44.1660156 C165.80729,44.1660156 165.445965,44.2067053 165.146484,44.2880859 C164.847004,44.3694666 164.602866,44.4833977 164.414062,44.6298828 C164.225259,44.7763679 164.085287,44.9521474 163.994141,45.1572266 C163.902994,45.3623057 163.857422,45.5852853 163.857422,45.8261719 C163.857422,46.190757 163.986001,46.4934884 164.243164,46.734375 C164.500327,46.9752616 164.88932,47.0957031 165.410156,47.0957031 Z M182.919922,43.8242188 C182.919922,44.6119831 182.83366,45.3346321 182.661133,45.9921875 C182.488606,46.6497429 182.229819,47.2161435 181.884766,47.6914062 C181.539712,48.166669 181.110029,48.5361315 180.595703,48.7998047 C180.081378,49.0634779 179.482425,49.1953125 178.798828,49.1953125 C178.180335,49.1953125 177.644859,49.0797538 177.192383,48.8486328 C176.739907,48.6175119 176.350913,48.2936219 176.025391,47.8769531 L175.898438,49 L173.457031,49 L173.457031,34 L176.171875,34 L176.171875,39.390625 C176.484377,39.0260398 176.853839,38.7428396 177.280273,38.5410156 C177.706708,38.3391917 178.206377,38.2382812 178.779297,38.2382812 C179.469404,38.2382812 180.07324,38.3717435 180.59082,38.6386719 C181.108401,38.9056003 181.539712,39.2766903 181.884766,39.7519531 C182.229819,40.2272159 182.488606,40.7952441 182.661133,41.4560547 C182.83366,42.1168653 182.919922,42.8378867 182.919922,43.6191406 L182.919922,43.8242188 Z M180.205078,43.6191406 C180.205078,43.189451 180.172526,42.782554 180.107422,42.3984375 C180.042317,42.014321 179.930014,41.6774103 179.770508,41.3876953 C179.611002,41.0979803 179.394533,40.8684904 179.121094,40.6992188 C178.847655,40.5299471 178.505861,40.4453125 178.095703,40.4453125 C177.600909,40.4453125 177.198895,40.5494781 176.889648,40.7578125 C176.580402,40.9661469 176.341147,41.2526023 176.171875,41.6171875 L176.171875,45.8261719 C176.341147,46.190757 176.580402,46.4772125 176.889648,46.6855469 C177.198895,46.8938812 177.607419,46.9980469 178.115234,46.9980469 C178.525393,46.9980469 178.863931,46.9182951 179.130859,46.7587891 C179.397788,46.5992831 179.611002,46.3779311 179.770508,46.0947266 C179.930014,45.811522 180.042317,45.4762389 180.107422,45.0888672 C180.172526,44.7014955 180.205078,44.2799502 180.205078,43.8242188 L180.205078,43.6191406 Z M192.988281,38.2382812 C193.39844,38.2382812 193.777668,38.2659502 194.125977,38.3212891 C194.474286,38.3766279 194.755858,38.4368486 194.970703,38.5019531 L194.570312,41.2070312 C194.212238,41.1223954 193.846031,41.0589195 193.47168,41.0166016 C193.097329,40.9742836 192.740887,40.953125 192.402344,40.953125 C191.640621,40.953125 191.030276,41.0996079 190.571289,41.3925781 C190.112302,41.6855483 189.768881,42.105466 189.541016,42.6523438 L189.541016,49 L186.826172,49 L186.826172,38.4335938 L189.355469,38.4335938 L189.482422,40.1621094 C189.912112,39.563148 190.426429,39.0927751 191.025391,38.7509766 C191.624352,38.409178 192.278642,38.2382812 192.988281,38.2382812 Z M198.125,38.4335938 L203.876953,38.4335938 L203.876953,46.7929688 L206.738281,46.7929688 L206.738281,49 L198.125,49 L198.125,46.7929688 L201.132812,46.7929688 L201.132812,40.6503906 L198.125,40.6503906 L198.125,38.4335938 Z M200.9375,35.7285156 C200.9375,35.5201813 200.974935,35.3264983 201.049805,35.1474609 C201.124675,34.9684236 201.230468,34.8154303 201.367188,34.6884766 C201.503907,34.5615228 201.668293,34.4622399 201.860352,34.390625 C202.05241,34.3190101 202.265624,34.2832031 202.5,34.2832031 C202.981773,34.2832031 203.364256,34.4182929 203.647461,34.6884766 C203.930665,34.9586602 204.072266,35.3053364 204.072266,35.7285156 C204.072266,36.1516948 203.930665,36.498371 203.647461,36.7685547 C203.364256,37.0387383 202.981773,37.1738281 202.5,37.1738281 C202.265624,37.1738281 202.05241,37.1380212 201.860352,37.0664062 C201.668293,36.9947913 201.503907,36.8955084 201.367188,36.7685547 C201.230468,36.6416009 201.124675,36.4886077 201.049805,36.3095703 C200.974935,36.130533 200.9375,35.93685 200.9375,35.7285156 Z M214.082031,47.0273438 C214.34896,47.0273438 214.602863,46.9882816 214.84375,46.9101562 C215.084637,46.8320309 215.296223,46.7213549 215.478516,46.578125 C215.660808,46.4348951 215.802408,46.2623708 215.90332,46.0605469 C216.004232,45.8587229 216.048177,45.6341158 216.035156,45.3867188 L218.59375,45.3867188 C218.606771,45.9335965 218.494467,46.4414039 218.256836,46.9101562 C218.019205,47.3789086 217.695315,47.7825504 217.285156,48.1210938 C216.874998,48.4596371 216.398115,48.7249339 215.854492,48.9169922 C215.31087,49.1090504 214.736331,49.2050781 214.130859,49.2050781 C213.310543,49.2050781 212.591149,49.0667332 211.972656,48.7900391 C211.354164,48.513345 210.838218,48.134117 210.424805,47.6523438 C210.011391,47.1705705 209.698894,46.6057975 209.487305,45.9580078 C209.275715,45.3102181 209.169922,44.6152381 209.169922,43.8730469 L209.169922,43.5800781 C209.169922,42.8378869 209.274088,42.1429069 209.482422,41.4951172 C209.690756,40.8473275 210.003253,40.2825545 210.419922,39.8007812 C210.836591,39.319008 211.352536,38.9381524 211.967773,38.6582031 C212.583011,38.3782538 213.297522,38.2382812 214.111328,38.2382812 C214.762373,38.2382812 215.364581,38.3359365 215.917969,38.53125 C216.471357,38.7265635 216.94824,39.0016258 217.348633,39.3564453 C217.749025,39.7112648 218.059895,40.140948 218.28125,40.6455078 C218.502605,41.1500676 218.606771,41.7148406 218.59375,42.3398438 L216.035156,42.3398438 C216.048177,42.0794258 216.009115,41.8320324 215.917969,41.5976562 C215.826822,41.3632801 215.69336,41.1614592 215.517578,40.9921875 C215.341796,40.8229158 215.13021,40.687826 214.882812,40.5869141 C214.635415,40.4860021 214.365236,40.4355469 214.072266,40.4355469 C213.642576,40.4355469 213.287762,40.5234366 213.007812,40.6992188 C212.727863,40.8750009 212.504884,41.1093735 212.338867,41.4023438 C212.172851,41.695314 212.055664,42.0305971 211.987305,42.4082031 C211.918945,42.7858092 211.884766,43.1764303 211.884766,43.5800781 L211.884766,43.8730469 C211.884766,44.2832052 211.917317,44.678709 211.982422,45.0595703 C212.047526,45.4404316 212.163085,45.7757147 212.329102,46.0654297 C212.495118,46.3551447 212.719725,46.5878897 213.00293,46.7636719 C213.286134,46.939454 213.645831,47.0273438 214.082031,47.0273438 Z M228.007812,49 C227.942708,48.869791 227.88737,48.7200529 227.841797,48.5507812 C227.796224,48.3815096 227.757162,48.2024749 227.724609,48.0136719 C227.574869,48.1764331 227.402345,48.3294264 227.207031,48.4726562 C227.011718,48.6158861 226.795249,48.7412104 226.557617,48.8486328 C226.319986,48.9560552 226.057944,49.0406898 225.771484,49.1025391 C225.485025,49.1643883 225.175783,49.1953125 224.84375,49.1953125 C224.303383,49.1953125 223.806968,49.1171883 223.354492,48.9609375 C222.902016,48.8046867 222.513022,48.5865899 222.1875,48.3066406 C221.861978,48.0266913 221.608074,47.6930358 221.425781,47.3056641 C221.243489,46.9182923 221.152344,46.4967471 221.152344,46.0410156 C221.152344,44.9277288 221.567379,44.0667348 222.397461,43.4580078 C223.227543,42.8492808 224.466138,42.5449219 226.113281,42.5449219 L227.626953,42.5449219 L227.626953,41.9199219 C227.626953,41.4121068 227.460939,41.0100926 227.128906,40.7138672 C226.796873,40.4176417 226.318363,40.2695312 225.693359,40.2695312 C225.139971,40.2695312 224.736329,40.3883452 224.482422,40.6259766 C224.228514,40.863608 224.101562,41.1809876 224.101562,41.578125 L221.386719,41.578125 C221.386719,41.128904 221.486002,40.702476 221.68457,40.2988281 C221.883139,39.8951803 222.17285,39.5403661 222.553711,39.234375 C222.934572,38.9283839 223.400062,38.6858733 223.950195,38.5068359 C224.500328,38.3277986 225.130205,38.2382812 225.839844,38.2382812 C226.477868,38.2382812 227.071937,38.3164055 227.62207,38.4726562 C228.172203,38.628907 228.649087,38.8600245 229.052734,39.1660156 C229.456382,39.4720067 229.772134,39.8577451 230,40.3232422 C230.227866,40.7887393 230.341797,41.3274709 230.341797,41.9394531 L230.341797,46.4707031 C230.341797,47.0371122 230.377604,47.5058575 230.449219,47.8769531 C230.520834,48.2480487 230.624999,48.567056 230.761719,48.8339844 L230.761719,49 L228.007812,49 Z M225.419922,47.0957031 C225.693361,47.0957031 225.947264,47.0631514 226.181641,46.9980469 C226.416017,46.9329424 226.627603,46.8483078 226.816406,46.7441406 C227.005209,46.6399734 227.167968,46.5211595 227.304688,46.3876953 C227.441407,46.2542311 227.548828,46.1191413 227.626953,45.9824219 L227.626953,44.1660156 L226.240234,44.1660156 C225.817055,44.1660156 225.455731,44.2067053 225.15625,44.2880859 C224.856769,44.3694666 224.612631,44.4833977 224.423828,44.6298828 C224.235025,44.7763679 224.095053,44.9521474 224.003906,45.1572266 C223.91276,45.3623057 223.867188,45.5852853 223.867188,45.8261719 C223.867188,46.190757 223.995767,46.4934884 224.25293,46.734375 C224.510092,46.9752616 224.899086,47.0957031 225.419922,47.0957031 Z" id="Creative-Fabrica"></path>
                </g>
            </g>
        </g>
    </g>
</svg>